<svg width="24" height="24" viewBox="0 0 24 24" fill="none" xmlns="http://www.w3.org/2000/svg">
<path d="M12.003 5.54502L11.886 5.55102L11.774 5.57102C11.5741 5.61811 11.3935 5.72562 11.2568 5.87896C11.1201 6.03229 11.0339 6.224 11.01 6.42802L11.003 6.54502V11H6.544L6.428 11.007C6.2046 11.0331 5.99653 11.1338 5.8374 11.2928C5.67827 11.4517 5.57737 11.6597 5.551 11.883L5.545 12L5.552 12.117C5.57837 12.3404 5.67927 12.5483 5.8384 12.7073C5.99753 12.8662 6.2056 12.9669 6.429 12.993L6.545 13H11.002L11.003 17.454L11.01 17.57C11.0361 17.7934 11.1368 18.0015 11.2957 18.1606C11.4547 18.3198 11.6626 18.4207 11.886 18.447L12.003 18.454L12.12 18.447C12.3434 18.4207 12.5513 18.3198 12.7103 18.1606C12.8692 18.0015 12.9699 17.7934 12.996 17.57L13.003 17.454V13H17.455L17.571 12.993C17.7944 12.9669 18.0025 12.8662 18.1616 12.7073C18.3207 12.5483 18.4216 12.3404 18.448 12.117L18.455 12L18.448 11.883C18.4216 11.6597 18.3207 11.4517 18.1616 11.2928C18.0025 11.1338 17.7944 11.0331 17.571 11.007L17.455 11H13.002L13.003 6.54502L12.996 6.42802C12.9699 6.20463 12.8692 5.99656 12.7103 5.83742C12.5513 5.67829 12.3434 5.57739 12.12 5.55102L12.003 5.54502ZM8.552 0.999023H15.448C18.202 0.999023 19.733 1.57802 21.112 2.91102C22.367 4.20802 22.95 5.66902 22.997 8.21302L23 8.55002V15.448C23 18.203 22.422 19.734 21.088 21.112C19.79 22.367 18.329 22.95 15.786 22.997L15.448 23H8.552C5.798 23 4.267 22.421 2.888 21.088C1.633 19.791 1.049 18.33 1.003 15.786L1 15.45V8.55102C1 5.79702 1.579 4.26502 2.912 2.88702C4.21 1.63302 5.67 1.05002 8.214 1.00202L8.552 1.00002V0.999023Z" fill="#262626"/>
</svg>
