<svg width="24" height="24" viewBox="0 0 24 24" fill="none" xmlns="http://www.w3.org/2000/svg">
<path d="M12.003 1.13097C10.5869 1.07917 9.17502 1.31489 7.85258 1.82389C6.53013 2.3329 5.32456 3.10464 4.30865 4.09251C3.29274 5.08038 2.48757 6.26389 1.94177 7.57158C1.39596 8.87926 1.12083 10.284 1.13299 11.701C1.11011 13.1653 1.40304 14.6175 1.99182 15.9584C2.5806 17.2994 3.45142 18.4978 4.54499 19.472L4.59899 21.252C4.60757 21.5251 4.68307 21.792 4.81885 22.0292C4.95463 22.2664 5.14655 22.4666 5.37776 22.6123C5.60897 22.758 5.87241 22.8448 6.14496 22.865C6.41752 22.8851 6.69085 22.8381 6.94099 22.728L8.87599 21.856C9.89493 22.1344 10.9467 22.2743 12.003 22.272C13.419 22.3236 14.8309 22.0878 16.1532 21.5788C17.4756 21.0697 18.6811 20.298 19.697 19.3101C20.7129 18.3223 21.5181 17.1388 22.0639 15.8312C22.6098 14.5236 22.885 13.1189 22.873 11.702C22.8852 10.285 22.61 8.88026 22.0642 7.57258C21.5184 6.26489 20.7132 5.08138 19.6973 4.09351C18.6814 3.10564 17.4758 2.3339 16.1534 1.82489C14.831 1.31589 13.4191 1.08017 12.003 1.13197V1.13097ZM17.789 10.132L15.223 14.115C15.1068 14.2989 14.9537 14.4568 14.7735 14.5787C14.5933 14.7006 14.3898 14.7838 14.1759 14.8233C13.9619 14.8627 13.7421 14.8575 13.5303 14.8079C13.3184 14.7583 13.1192 14.6653 12.945 14.535L10.493 12.695C10.3835 12.6128 10.2501 12.5685 10.1132 12.5688C9.9762 12.5692 9.84309 12.6142 9.73399 12.697L7.17799 14.746C7.05538 14.8409 6.90322 14.8896 6.74827 14.8834C6.59332 14.8773 6.44551 14.8166 6.33084 14.7122C6.21617 14.6079 6.14199 14.4664 6.12135 14.3127C6.10071 14.159 6.13493 14.0029 6.21799 13.872L8.78299 9.88997C8.89913 9.70609 9.05207 9.54824 9.23219 9.42635C9.41231 9.30446 9.61571 9.22117 9.82958 9.18172C10.0435 9.14227 10.2632 9.14751 10.4749 9.19712C10.6867 9.24673 10.8859 9.33963 11.06 9.46997L13.513 11.31C13.6225 11.3918 13.7557 11.4358 13.8925 11.4352C14.0292 11.4347 14.1621 11.3897 14.271 11.307L16.827 9.25697C16.9495 9.16133 17.1019 9.11208 17.2573 9.11793C17.4126 9.12377 17.5609 9.18434 17.6759 9.28893C17.7909 9.39352 17.8652 9.53539 17.8857 9.68948C17.9062 9.84356 17.8716 9.99994 17.788 10.131L17.789 10.132Z" fill="#262626"/>
</svg>
