<svg width="24" height="24" viewBox="0 0 24 24" fill="none" xmlns="http://www.w3.org/2000/svg">
<path d="M18.5 10.5C18.5 12.0823 18.0308 13.629 17.1518 14.9446C16.2727 16.2602 15.0233 17.2855 13.5615 17.891C12.0997 18.4965 10.4911 18.655 8.93928 18.3463C7.38743 18.0376 5.96197 17.2757 4.84315 16.1569C3.72433 15.038 2.9624 13.6126 2.65372 12.0607C2.34504 10.5089 2.50347 8.90034 3.10897 7.43853C3.71447 5.97672 4.73985 4.72729 6.05544 3.84824C7.37103 2.96919 8.91775 2.5 10.5 2.5C12.6217 2.5 14.6566 3.34285 16.1569 4.84315C17.6571 6.34344 18.5 8.37827 18.5 10.5Z" stroke="black" stroke-width="3" stroke-linecap="round" stroke-linejoin="round"/>
<path d="M16.511 16.511L21.643 21.643" stroke="black" stroke-width="3" stroke-linecap="round" stroke-linejoin="round"/>
</svg>
